<svg width="25" height="25" viewBox="0 0 25 25" fill="none" xmlns="http://www.w3.org/2000/svg">
<g id="Icon / Apple" clip-path="url(#clip0_640_745)">
<path id="Vector" d="M21.7806 18.6037C21.4328 19.4072 21.0211 20.1469 20.5441 20.8269C19.8939 21.754 19.3615 22.3957 18.9512 22.7521C18.3151 23.337 17.6337 23.6365 16.9039 23.6536C16.3801 23.6536 15.7483 23.5045 15.0129 23.2021C14.2751 22.9011 13.597 22.7521 12.977 22.7521C12.3268 22.7521 11.6294 22.9011 10.8835 23.2021C10.1365 23.5045 9.53466 23.6621 9.07453 23.6777C8.37475 23.7075 7.67725 23.3994 6.98102 22.7521C6.53665 22.3645 5.98084 21.7 5.31499 20.7588C4.6006 19.7536 4.01326 18.588 3.55313 17.2592C3.06035 15.8239 2.81332 14.434 2.81332 13.0884C2.81332 11.547 3.14639 10.2176 3.81351 9.10353C4.33781 8.20869 5.03531 7.50281 5.90829 6.98462C6.78127 6.46642 7.72453 6.20236 8.74033 6.18546C9.29614 6.18546 10.025 6.35739 10.9308 6.69528C11.834 7.03431 12.414 7.20623 12.6682 7.20623C12.8583 7.20623 13.5026 7.0052 14.5948 6.60442C15.6276 6.23274 16.4993 6.07884 17.2134 6.13947C19.1485 6.29563 20.6023 7.05844 21.5691 8.43272C19.8385 9.48132 18.9824 10.95 18.9994 12.8341C19.0151 14.3017 19.5474 15.5229 20.5938 16.4925C21.068 16.9426 21.5975 17.2904 22.1867 17.5375C22.0589 17.908 21.924 18.2629 21.7806 18.6037ZM17.3426 1.13982C17.3426 2.29008 16.9224 3.36408 16.0848 4.35816C15.0739 5.53992 13.8513 6.2228 12.5254 6.11505C12.5085 5.97705 12.4987 5.83181 12.4987 5.6792C12.4987 4.57495 12.9794 3.39318 13.8331 2.42693C14.2593 1.93769 14.8014 1.53091 15.4587 1.2064C16.1146 0.88674 16.735 0.70996 17.3185 0.679688C17.3355 0.83346 17.3426 0.987241 17.3426 1.1398V1.13982Z" fill="black"/>
</g>
<defs>
<clipPath id="clip0_640_745">
<rect width="24" height="24" fill="white" transform="translate(0.5 0.179688)"/>
</clipPath>
</defs>
</svg>
