<svg width="25" height="25" viewBox="0 0 25 25" fill="none" xmlns="http://www.w3.org/2000/svg">
<g id="16304616191553750378 2" clip-path="url(#clip0_283_925)">
<g id="Group">
<path id="Vector" d="M12.7072 3.12715C15.8619 3.12715 16.2322 3.14121 17.4791 3.19746C18.6322 3.24902 19.2557 3.44121 19.6729 3.60527C20.226 3.8209 20.6197 4.07402 21.0322 4.48652C21.4447 4.89902 21.7025 5.29277 21.9135 5.8459C22.0729 6.26309 22.2697 6.88652 22.3213 8.03965C22.3775 9.28652 22.3916 9.65684 22.3916 12.8115C22.3916 15.9662 22.3775 16.3365 22.3213 17.5834C22.2697 18.7365 22.0775 19.36 21.9135 19.7771C21.6979 20.3303 21.4447 20.724 21.0322 21.1365C20.6197 21.549 20.226 21.8068 19.6729 22.0178C19.2557 22.1771 18.6322 22.374 17.4791 22.4256C16.2322 22.4818 15.8619 22.4959 12.7072 22.4959C9.55254 22.4959 9.18223 22.4818 7.93535 22.4256C6.78223 22.374 6.15879 22.1818 5.7416 22.0178C5.18848 21.8021 4.79473 21.549 4.38223 21.1365C3.96973 20.724 3.71191 20.3303 3.50098 19.7771C3.3416 19.36 3.14473 18.7365 3.09316 17.5834C3.03691 16.3365 3.02285 15.9662 3.02285 12.8115C3.02285 9.65684 3.03691 9.28652 3.09316 8.03965C3.14473 6.88652 3.33691 6.26309 3.50098 5.8459C3.7166 5.29277 3.96973 4.89902 4.38223 4.48652C4.79473 4.07402 5.18848 3.81621 5.7416 3.60527C6.15879 3.4459 6.78223 3.24902 7.93535 3.19746C9.18223 3.13652 9.55254 3.12715 12.7072 3.12715ZM12.7072 0.999023C9.50098 0.999023 9.09785 1.01309 7.83691 1.06934C6.58066 1.12559 5.72285 1.32715 4.97285 1.61777C4.19473 1.91777 3.53848 2.32559 2.88223 2.98184C2.22598 3.63809 1.82285 4.29902 1.51816 5.07246C1.22754 5.82246 1.02598 6.68027 0.969727 7.94121C0.913477 9.19746 0.899414 9.60059 0.899414 12.8068C0.899414 16.0131 0.913477 16.4162 0.969727 17.6771C1.02598 18.9334 1.22754 19.7912 1.51816 20.5459C1.81816 21.324 2.22598 21.9803 2.88223 22.6365C3.53848 23.2928 4.19941 23.6959 4.97285 24.0006C5.72285 24.2912 6.58066 24.4928 7.8416 24.549C9.10254 24.6053 9.50098 24.6193 12.7119 24.6193C15.9229 24.6193 16.3213 24.6053 17.5822 24.549C18.8385 24.4928 19.6963 24.2912 20.451 24.0006C21.2291 23.7006 21.8854 23.2928 22.5416 22.6365C23.1979 21.9803 23.601 21.3193 23.9057 20.5459C24.1963 19.7959 24.3979 18.9381 24.4541 17.6771C24.5104 16.4162 24.5244 16.0178 24.5244 12.8068C24.5244 9.5959 24.5104 9.19746 24.4541 7.93652C24.3979 6.68027 24.1963 5.82246 23.9057 5.06777C23.6057 4.28965 23.1979 3.6334 22.5416 2.97715C21.8854 2.3209 21.2244 1.91777 20.451 1.61309C19.701 1.32246 18.8432 1.1209 17.5822 1.06465C16.3166 1.01309 15.9135 0.999023 12.7072 0.999023Z" fill="#331B3B"/>
<path id="Vector_2" d="M12.7072 6.74121C9.36035 6.74121 6.6416 9.45527 6.6416 12.8068C6.6416 16.1584 9.36035 18.8725 12.7072 18.8725C16.0541 18.8725 18.7729 16.1537 18.7729 12.8068C18.7729 9.45996 16.0541 6.74121 12.7072 6.74121ZM12.7072 16.7443C10.5322 16.7443 8.76973 14.9818 8.76973 12.8068C8.76973 10.6318 10.5322 8.86934 12.7072 8.86934C14.8822 8.86934 16.6447 10.6318 16.6447 12.8068C16.6447 14.9818 14.8822 16.7443 12.7072 16.7443Z" fill="#331B3B"/>
<path id="Vector_3" d="M19.0123 7.91816C19.7941 7.91816 20.4279 7.28437 20.4279 6.50254C20.4279 5.72071 19.7941 5.08691 19.0123 5.08691C18.2305 5.08691 17.5967 5.72071 17.5967 6.50254C17.5967 7.28437 18.2305 7.91816 19.0123 7.91816Z" fill="#331B3B"/>
</g>
</g>
<defs>
<clipPath id="clip0_283_925">
<rect width="24" height="24" fill="white" transform="translate(0.707031 0.806641)"/>
</clipPath>
</defs>
</svg>
