<svg width="19" height="19" viewBox="0 0 19 19" fill="none" xmlns="http://www.w3.org/2000/svg">
<g id="14459920111530103316 2" clip-path="url(#clip0_283_921)">
<g id="Page-1">
<g id="Social-Icons---Isolated">
<path id="Linkedin" fill-rule="evenodd" clip-rule="evenodd" d="M18.2568 18.8066H14.5584V12.5074C14.5584 10.7803 13.9021 9.81513 12.5352 9.81513C11.048 9.81513 10.2711 10.8195 10.2711 12.5074V18.8066H6.70684V6.80664H10.2711V8.42304C10.2711 8.42304 11.3428 6.44002 13.8893 6.44002C16.4346 6.44002 18.2568 7.99434 18.2568 11.209V18.8066ZM2.45468 5.23534C1.24062 5.23534 0.256836 4.24383 0.256836 3.02099C0.256836 1.79815 1.24062 0.806641 2.45468 0.806641C3.66875 0.806641 4.65195 1.79815 4.65195 3.02099C4.65195 4.24383 3.66875 5.23534 2.45468 5.23534ZM0.614261 18.8066H4.33086V6.80664H0.614261V18.8066Z" fill="#331B3B"/>
</g>
</g>
</g>
<defs>
<clipPath id="clip0_283_921">
<rect width="18" height="18" fill="white" transform="translate(0.256836 0.806641)"/>
</clipPath>
</defs>
</svg>
