<svg width="130" height="50" viewBox="0 0 130 50" fill="none" xmlns="http://www.w3.org/2000/svg">
<g filter="url(#filter0_d_283_1057)">
<path d="M20.7998 16.2752L26.0498 19.9502L31.2998 16.2752V0.000128269H20.7998L20.7998 16.2752Z" fill="#2176FF"/>
<path d="M40.75 0H44.425H48.1V38.8501H40.75V0Z" fill="#2176FF"/>
<path d="M4 0H11.35V38.8501H4V0Z" fill="#2176FF"/>
<path d="M15.5498 23.0996L26.0498 27.4196L36.5499 23.0996V39.2997L26.0498 41.9997L15.5498 39.2997V23.0996Z" fill="#FCD19C"/>
<path d="M60.2831 39H54.8048L61.9204 17.9106H68.7065L75.8221 39H70.3438L65.3907 23.2241H65.2259L60.2831 39ZM59.552 30.7002H71.0029V34.572H59.552V30.7002ZM83.19 17.9106V39H78.0927V17.9106H83.19ZM86.39 39V17.9106H95.1017C96.6807 17.9106 98.0434 18.1955 99.1899 18.7653C100.343 19.3282 101.232 20.1383 101.857 21.1955C102.482 22.2459 102.794 23.4919 102.794 24.9335C102.794 26.3958 102.475 27.6384 101.836 28.6613C101.198 29.6773 100.292 30.453 99.1178 30.9885C97.9438 31.5171 96.5537 31.7814 94.9473 31.7814H89.4381V27.7654H93.9999C94.7688 27.7654 95.4106 27.6658 95.9255 27.4667C96.4473 27.2608 96.842 26.9519 97.1097 26.54C97.3775 26.1212 97.5114 25.5857 97.5114 24.9335C97.5114 24.2814 97.3775 23.7425 97.1097 23.3168C96.842 22.8843 96.4473 22.5617 95.9255 22.3488C95.4038 22.1292 94.7619 22.0193 93.9999 22.0193H91.4873V39H86.39ZM98.2631 29.3615L103.515 39H97.9541L92.8054 29.3615H98.2631ZM125.495 28.4553C125.495 30.7757 125.049 32.7425 124.156 34.3558C123.264 35.9691 122.056 37.1945 120.532 38.032C119.014 38.8696 117.312 39.2883 115.424 39.2883C113.529 39.2883 111.823 38.8661 110.306 38.0217C108.789 37.1773 107.584 35.9519 106.692 34.3455C105.806 32.7322 105.363 30.7688 105.363 28.4553C105.363 26.1349 105.806 24.1681 106.692 22.5548C107.584 20.9415 108.789 19.7161 110.306 18.8786C111.823 18.041 113.529 17.6223 115.424 17.6223C117.312 17.6223 119.014 18.041 120.532 18.8786C122.056 19.7161 123.264 20.9415 124.156 22.5548C125.049 24.1681 125.495 26.1349 125.495 28.4553ZM120.284 28.4553C120.284 27.0823 120.089 25.9221 119.697 24.9747C119.313 24.0273 118.757 23.31 118.029 22.8225C117.308 22.3351 116.44 22.0914 115.424 22.0914C114.415 22.0914 113.546 22.3351 112.819 22.8225C112.091 23.31 111.531 24.0273 111.14 24.9747C110.756 25.9221 110.564 27.0823 110.564 28.4553C110.564 29.8283 110.756 30.9885 111.14 31.9359C111.531 32.8832 112.091 33.6006 112.819 34.0881C113.546 34.5755 114.415 34.8192 115.424 34.8192C116.44 34.8192 117.308 34.5755 118.029 34.0881C118.757 33.6006 119.313 32.8832 119.697 31.9359C120.089 30.9885 120.284 29.8283 120.284 28.4553Z" fill="#2176FF"/>
</g>
<defs>
<filter id="filter0_d_283_1057" x="0" y="0" width="129.495" height="50" filterUnits="userSpaceOnUse" color-interpolation-filters="sRGB">
<feFlood flood-opacity="0" result="BackgroundImageFix"/>
<feColorMatrix in="SourceAlpha" type="matrix" values="0 0 0 0 0 0 0 0 0 0 0 0 0 0 0 0 0 0 127 0" result="hardAlpha"/>
<feOffset dy="4"/>
<feGaussianBlur stdDeviation="2"/>
<feComposite in2="hardAlpha" operator="out"/>
<feColorMatrix type="matrix" values="0 0 0 0 0 0 0 0 0 0 0 0 0 0 0 0 0 0 0.25 0"/>
<feBlend mode="normal" in2="BackgroundImageFix" result="effect1_dropShadow_283_1057"/>
<feBlend mode="normal" in="SourceGraphic" in2="effect1_dropShadow_283_1057" result="shape"/>
</filter>
</defs>
</svg>
