<svg width="12" height="13" viewBox="0 0 12 13" fill="none" xmlns="http://www.w3.org/2000/svg">
<path d="M11.1002 10.5389C11.2957 10.756 11.2957 11.0818 11.0785 11.2772L10.4705 11.8852C10.2751 12.1023 9.94934 12.1023 9.73219 11.8852L7.58243 9.73544C7.47386 9.62687 7.43043 9.49658 7.43043 9.36629V8.99714C6.6487 9.60515 5.69325 9.95259 4.65094 9.95259C2.15375 9.95259 0.134277 7.93312 0.134277 5.43592C0.134277 2.96044 2.15375 0.919255 4.65094 0.919255C7.12643 0.919255 9.16761 2.96044 9.16761 5.43592C9.16761 6.49994 8.79846 7.45539 8.21216 8.21541H8.5596C8.68989 8.21541 8.82018 8.28055 8.92875 8.36741L11.1002 10.5389ZM4.65094 8.21541C6.17098 8.21541 7.43043 6.97767 7.43043 5.43592C7.43043 3.91589 6.17098 2.65643 4.65094 2.65643C3.1092 2.65643 1.87146 3.91589 1.87146 5.43592C1.87146 6.97767 3.1092 8.21541 4.65094 8.21541Z" fill="white"/>
</svg>
